<?xml version="1.0" encoding="UTF-8" standalone="no" ?>
<!DOCTYPE svg PUBLIC "-//W3C//DTD SVG 1.1//EN" "http://www.w3.org/Graphics/SVG/1.1/DTD/svg11.dtd">
<svg xmlns="http://www.w3.org/2000/svg" xmlns:xlink="http://www.w3.org/1999/xlink" version="1.1" width="500" height="500" viewBox="0 0 500 500" xml:space="preserve">
<!-- Created with SVG Stack Editor - https://svgstack.com -->
<defs>
</defs>
<rect x="0" y="0" width="100%" height="100%" fill="transparent"></rect>
<g transform="matrix(2.49 0 0 2.49 250 250)"  >
<g style=""   >
		<g transform="matrix(1 0 0 1 0 0)" id="path_0"  >
<path style="stroke: none; stroke-width: 1; stroke-dasharray: none; stroke-linecap: butt; stroke-dashoffset: 0; stroke-linejoin: miter; stroke-miterlimit: 4; fill: rgb(0,0,0); fill-rule: nonzero; opacity: 1;"  transform=" translate(-100.29, -100.42)" d="M 200.281 100.423 C 200.281 150.943 162.844 192.708 114.21 199.486 C 109.663 200.116 105.01 200.446 100.288 200.446 C 94.8367 200.446 89.4835 200.011 84.2705 199.17 C 36.6598 191.503 0.294922 150.207 0.294922 100.423 C 0.294922 45.18 45.0679 0.393799 100.295 0.393799 C 155.522 0.393799 200.295 45.18 200.295 100.423 L 200.281 100.423 Z" stroke-linecap="round" />
</g>
		<g transform="matrix(1 0 0 1 -0.01 0.01)" id="path_1"  >
<path style="stroke: none; stroke-width: 1; stroke-dasharray: none; stroke-linecap: butt; stroke-dashoffset: 0; stroke-linejoin: miter; stroke-miterlimit: 4; fill: rgb(255,255,255); fill-rule: nonzero; opacity: 1;"  transform=" translate(-100.29, -100.43)" d="M 40.8499 44.5142 L 86.9681 106.192 L 40.5626 156.339 L 51.0096 156.339 L 91.6417 112.436 L 124.468 156.339 L 160.013 156.339 L 111.302 91.1927 L 154.499 44.5142 L 144.052 44.5142 L 106.636 84.9479 L 76.402 44.5142 L 40.8568 44.5142 L 40.8499 44.5142 Z M 56.2086 52.2098 L 72.5343 52.2098 L 144.641 148.644 L 128.315 148.644 L 56.2086 52.2098 Z" stroke-linecap="round" />
</g>
</g>
</g>
<g transform="matrix(2.49 0 0 2.49 250 250)"  >
<g style=""   >
		<g transform="matrix(1 0 0 1 0 0)" id="path_0"  >
<path style="stroke: none; stroke-width: 1; stroke-dasharray: none; stroke-linecap: butt; stroke-dashoffset: 0; stroke-linejoin: miter; stroke-miterlimit: 4; fill: rgb(0,0,0); fill-rule: nonzero; opacity: 1;"  transform=" translate(-100.29, -100.42)" d="M 200.281 100.423 C 200.281 150.943 162.844 192.708 114.21 199.486 C 109.663 200.116 105.01 200.446 100.288 200.446 C 94.8367 200.446 89.4835 200.011 84.2705 199.17 C 36.6598 191.503 0.294922 150.207 0.294922 100.423 C 0.294922 45.18 45.0679 0.393799 100.295 0.393799 C 155.522 0.393799 200.295 45.18 200.295 100.423 L 200.281 100.423 Z" stroke-linecap="round" />
</g>
		<g transform="matrix(1 0 0 1 -0.01 0.01)" id="path_1"  >
<path style="stroke: none; stroke-width: 1; stroke-dasharray: none; stroke-linecap: butt; stroke-dashoffset: 0; stroke-linejoin: miter; stroke-miterlimit: 4; fill: rgb(255,255,255); fill-rule: nonzero; opacity: 1;"  transform=" translate(-100.29, -100.43)" d="M 40.8499 44.5142 L 86.9681 106.192 L 40.5626 156.339 L 51.0096 156.339 L 91.6417 112.436 L 124.468 156.339 L 160.013 156.339 L 111.302 91.1927 L 154.499 44.5142 L 144.052 44.5142 L 106.636 84.9479 L 76.402 44.5142 L 40.8568 44.5142 L 40.8499 44.5142 Z M 56.2086 52.2098 L 72.5343 52.2098 L 144.641 148.644 L 128.315 148.644 L 56.2086 52.2098 Z" stroke-linecap="round" />
</g>
</g>
</g>
</svg>